REM DIRINDEX 1\8,1\2\11,1\3\12,1\3\14,1\5\15,1\5\16,1\6\17,1\6\18,1\4\19,1\4\20,1\4\21,1\4\22,1\7\23,1\7\24,1\7\25,1\2\9\26,1\2\9\27,1\2\10\28,1\2\10\29,1\2\10\30,1\2\10\31,1\2\10\32,1\3\13\33,1\3\13\34,1\3\13\35
REM DIRNAME folder01,folder02,folder03,folder04,folder05,folder06,folder07,folder08,folder09,folder10,folder11,folder12,folder13,folder14,folder15,folder16,folder17,folder18,folder19,folder20,folder21,folder22,folder23,folder24,folder25,folder26,folder27,folder28,folder29,folder30,folder31,folder32,folder33,folder34,folder35
TITLE ""
FILE "2-46 046_UNIT4_SET5.mp3" MP3
  TRACK 01 AUDIO
    TITLE "11:cjc123_5250"
    INDEX 01 00:00:00
  TRACK 02 AUDIO
    TITLE "0:"
    INDEX 01 00:02:55
  TRACK 03 AUDIO
    TITLE "28:cjc123_5251"
    INDEX 01 00:03:33
  TRACK 04 AUDIO
    TITLE "0:"
    INDEX 01 00:04:48
  TRACK 05 AUDIO
    TITLE "29:cjc123_5252"
    INDEX 01 00:04:62
  TRACK 06 AUDIO
    TITLE "0:"
    INDEX 01 00:05:73
  TRACK 07 AUDIO
    TITLE "30:cjc123_5253"
    INDEX 01 00:06:04
  TRACK 08 AUDIO
    TITLE "0:"
    INDEX 01 00:07:15
  TRACK 09 AUDIO
    TITLE "31:cjc123_5254"
    INDEX 01 00:08:01
  TRACK 10 AUDIO
    TITLE "0:"
    INDEX 01 00:11:50
  TRACK 11 AUDIO
    TITLE "32:cjc123_5255"
    INDEX 01 00:12:18
  TRACK 12 AUDIO
    TITLE "0:"
    INDEX 01 00:15:68
  TRACK 13 AUDIO
    TITLE "28:cjc123_5256"
    INDEX 01 00:16:36
  TRACK 14 AUDIO
    TITLE "0:"
    INDEX 01 00:17:41
  TRACK 15 AUDIO
    TITLE "29:cjc123_5257"
    INDEX 01 00:17:55
  TRACK 16 AUDIO
    TITLE "0:"
    INDEX 01 00:19:15
  TRACK 17 AUDIO
    TITLE "30:cjc123_5258"
    INDEX 01 00:19:22
  TRACK 18 AUDIO
    TITLE "0:"
    INDEX 01 00:20:16
  TRACK 19 AUDIO
    TITLE "31:cjc123_5259"
    INDEX 01 00:20:65
  TRACK 20 AUDIO
    TITLE "0:"
    INDEX 01 00:26:62
  TRACK 21 AUDIO
    TITLE "32:cjc123_5260"
    INDEX 01 00:27:22
  TRACK 22 AUDIO
    TITLE "0:"
    INDEX 01 00:32:05
  TRACK 23 AUDIO
    TITLE "28:cjc123_5261"
    INDEX 01 00:32:56
  TRACK 24 AUDIO
    TITLE "0:"
    INDEX 01 00:34:12
  TRACK 25 AUDIO
    TITLE "29:cjc123_5262"
    INDEX 01 00:34:22
  TRACK 26 AUDIO
    TITLE "0:"
    INDEX 01 00:35:43
  TRACK 27 AUDIO
    TITLE "30:cjc123_5263"
    INDEX 01 00:35:55
  TRACK 28 AUDIO
    TITLE "0:"
    INDEX 01 00:37:01
  TRACK 29 AUDIO
    TITLE "31:cjc123_5264"
    INDEX 01 00:37:48
  TRACK 30 AUDIO
    TITLE "0:"
    INDEX 01 00:42:51
  TRACK 31 AUDIO
    TITLE "32:cjc123_5265"
    INDEX 01 00:43:11
  TRACK 32 AUDIO
    TITLE "0:"
    INDEX 01 00:46:68
  TRACK 33 AUDIO
    TITLE "28:cjc123_5266"
    INDEX 01 00:47:42
  TRACK 34 AUDIO
    TITLE "0:"
    INDEX 01 00:48:49
  TRACK 35 AUDIO
    TITLE "29:cjc123_5267"
    INDEX 01 00:48:63
  TRACK 36 AUDIO
    TITLE "0:"
    INDEX 01 00:50:09
  TRACK 37 AUDIO
    TITLE "30:cjc123_5268"
    INDEX 01 00:50:19
  TRACK 38 AUDIO
    TITLE "0:"
    INDEX 01 00:51:18
  TRACK 39 AUDIO
    TITLE "31:cjc123_5269"
    INDEX 01 00:51:65
  TRACK 40 AUDIO
    TITLE "0:"
    INDEX 01 00:55:30
  TRACK 41 AUDIO
    TITLE "32:cjc123_5270"
    INDEX 01 00:55:69
  TRACK 42 AUDIO
    TITLE "0:"
    INDEX 01 00:59:39
  TRACK 43 AUDIO
    TITLE "28:cjc123_5271"
    INDEX 01 01:00:12
  TRACK 44 AUDIO
    TITLE "0:"
    INDEX 01 01:01:05
  TRACK 45 AUDIO
    TITLE "29:cjc123_5272"
    INDEX 01 01:01:27
  TRACK 46 AUDIO
    TITLE "0:"
    INDEX 01 01:02:46
  TRACK 47 AUDIO
    TITLE "30:cjc123_5273"
    INDEX 01 01:02:54
  TRACK 48 AUDIO
    TITLE "0:"
    INDEX 01 01:03:47
  TRACK 49 AUDIO
    TITLE "31:cjc123_5274"
    INDEX 01 01:04:21
  TRACK 50 AUDIO
    TITLE "0:"
    INDEX 01 01:08:62
  TRACK 51 AUDIO
    TITLE "32:cjc123_5275"
    INDEX 01 01:09:26
  TRACK 52 AUDIO
    TITLE "0:"
    INDEX 01 01:13:40
  TRACK 53 AUDIO
    TITLE "28:cjc123_5276"
    INDEX 01 01:14:14
  TRACK 54 AUDIO
    TITLE "0:"
    INDEX 01 01:15:19
  TRACK 55 AUDIO
    TITLE "29:cjc123_5277"
    INDEX 01 01:15:33
  TRACK 56 AUDIO
    TITLE "0:"
    INDEX 01 01:17:04
  TRACK 57 AUDIO
    TITLE "30:cjc123_5278"
    INDEX 01 01:17:10
  TRACK 58 AUDIO
    TITLE "0:"
    INDEX 01 01:18:09
  TRACK 59 AUDIO
    TITLE "31:cjc123_5279"
    INDEX 01 01:18:60
  TRACK 60 AUDIO
    TITLE "0:"
    INDEX 01 01:21:65
  TRACK 61 AUDIO
    TITLE "32:cjc123_5280"
    INDEX 01 01:22:44
  TRACK 62 AUDIO
    TITLE "0:"
    INDEX 01 01:26:32
  TRACK 63 AUDIO
    TITLE "28:cjc123_5281"
    INDEX 01 01:26:74
  TRACK 64 AUDIO
    TITLE "0:"
    INDEX 01 01:27:73
  TRACK 65 AUDIO
    TITLE "29:cjc123_5282"
    INDEX 01 01:28:12
  TRACK 66 AUDIO
    TITLE "0:"
    INDEX 01 01:29:33
  TRACK 67 AUDIO
    TITLE "30:cjc123_5283"
    INDEX 01 01:29:50
  TRACK 68 AUDIO
    TITLE "0:"
    INDEX 01 01:30:42
  TRACK 69 AUDIO
    TITLE "31:cjc123_5284"
    INDEX 01 01:31:18
  TRACK 70 AUDIO
    TITLE "0:"
    INDEX 01 01:36:64
  TRACK 71 AUDIO
    TITLE "32:cjc123_5285"
    INDEX 01 01:37:60
  TRACK 72 AUDIO
    TITLE "0:"
    INDEX 01 01:45:69
  TRACK 73 AUDIO
    TITLE "28:cjc123_5286"
    INDEX 01 01:46:37
  TRACK 74 AUDIO
    TITLE "0:"
    INDEX 01 01:48:05
  TRACK 75 AUDIO
    TITLE "29:cjc123_5287"
    INDEX 01 01:48:20
  TRACK 76 AUDIO
    TITLE "0:"
    INDEX 01 01:49:49
  TRACK 77 AUDIO
    TITLE "30:cjc123_5288"
    INDEX 01 01:49:57
  TRACK 78 AUDIO
    TITLE "0:"
    INDEX 01 01:51:09
  TRACK 79 AUDIO
    TITLE "31:cjc123_5289"
    INDEX 01 01:52:02
  TRACK 80 AUDIO
    TITLE "0:"
    INDEX 01 01:57:49
  TRACK 81 AUDIO
    TITLE "32:cjc123_5290"
    INDEX 01 01:58:32
  TRACK 82 AUDIO
    TITLE "0:"
    INDEX 01 02:04:70
  TRACK 83 AUDIO
    TITLE "28:cjc123_5291"
    INDEX 01 02:05:25
  TRACK 84 AUDIO
    TITLE "0:"
    INDEX 01 02:06:40
  TRACK 85 AUDIO
    TITLE "29:cjc123_5292"
    INDEX 01 02:06:55
  TRACK 86 AUDIO
    TITLE "0:"
    INDEX 01 02:08:11
  TRACK 87 AUDIO
    TITLE "30:cjc123_5293"
    INDEX 01 02:08:23
  TRACK 88 AUDIO
    TITLE "0:"
    INDEX 01 02:09:34
  TRACK 89 AUDIO
    TITLE "31:cjc123_5294"
    INDEX 01 02:10:10
  TRACK 90 AUDIO
    TITLE "0:"
    INDEX 01 02:14:02
  TRACK 91 AUDIO
    TITLE "32:cjc123_5295"
    INDEX 01 02:14:33
  TRACK 92 AUDIO
    TITLE "0:"
    INDEX 01 02:17:71
  TRACK 93 AUDIO
    TITLE "28:cjc123_5296"
    INDEX 01 02:18:41
  TRACK 94 AUDIO
    TITLE "0:"
    INDEX 01 02:19:54
  TRACK 95 AUDIO
    TITLE "29:cjc123_5297"
    INDEX 01 02:19:66
  TRACK 96 AUDIO
    TITLE "0:"
    INDEX 01 02:21:08
  TRACK 97 AUDIO
    TITLE "30:cjc123_5298"
    INDEX 01 02:21:16
  TRACK 98 AUDIO
    TITLE "0:"
    INDEX 01 02:22:25
  TRACK 99 AUDIO
    TITLE "31:cjc123_5299"
    INDEX 01 02:22:74
  TRACK 100 AUDIO
    TITLE "0:"
    INDEX 01 02:26:35
  TRACK 101 AUDIO
    TITLE "32:cjc123_5300"
    INDEX 01 02:27:07
  TRACK 102 AUDIO
    TITLE "0:"
    INDEX 01 02:30:34
  TRACK 103 AUDIO
    TITLE "28:cjc123_5301"
    INDEX 01 02:31:08
  TRACK 104 AUDIO
    TITLE "0:"
    INDEX 01 02:32:22
  TRACK 105 AUDIO
    TITLE "29:cjc123_5302"
    INDEX 01 02:32:33
  TRACK 106 AUDIO
    TITLE "0:"
    INDEX 01 02:34:03
  TRACK 107 AUDIO
    TITLE "30:cjc123_5303"
    INDEX 01 02:34:13
  TRACK 108 AUDIO
    TITLE "0:"
    INDEX 01 02:35:22
  TRACK 109 AUDIO
    TITLE "31:cjc123_5304"
    INDEX 01 02:35:73
  TRACK 110 AUDIO
    TITLE "0:"
    INDEX 01 02:40:62
  TRACK 111 AUDIO
    TITLE "32:cjc123_5305"
    INDEX 01 02:41:26
  TRACK 112 AUDIO
    TITLE "0:"
    INDEX 01 02:47:33
  TRACK 113 AUDIO
    TITLE "28:cjc123_5306"
    INDEX 01 02:48:11
  TRACK 114 AUDIO
    TITLE "0:"
    INDEX 01 02:49:06
  TRACK 115 AUDIO
    TITLE "29:cjc123_5307"
    INDEX 01 02:49:22
  TRACK 116 AUDIO
    TITLE "0:"
    INDEX 01 02:50:19
  TRACK 117 AUDIO
    TITLE "30:cjc123_5308"
    INDEX 01 02:50:25
  TRACK 118 AUDIO
    TITLE "0:"
    INDEX 01 02:51:17
  TRACK 119 AUDIO
    TITLE "31:cjc123_5309"
    INDEX 01 02:51:72
  TRACK 120 AUDIO
    TITLE "0:"
    INDEX 01 02:57:72
  TRACK 121 AUDIO
    TITLE "32:cjc123_5310"
    INDEX 01 02:58:46
  TRACK 122 AUDIO
    TITLE "0:"
    INDEX 01 03:05:52
  TRACK 123 AUDIO
    TITLE "28:cjc123_5311"
    INDEX 01 03:06:13
  TRACK 124 AUDIO
    TITLE "0:"
    INDEX 01 03:07:28
  TRACK 125 AUDIO
    TITLE "29:cjc123_5312"
    INDEX 01 03:07:39
  TRACK 126 AUDIO
    TITLE "0:"
    INDEX 01 03:08:59
  TRACK 127 AUDIO
    TITLE "30:cjc123_5313"
    INDEX 01 03:08:64
  TRACK 128 AUDIO
    TITLE "0:"
    INDEX 01 03:10:08
  TRACK 129 AUDIO
    TITLE "31:cjc123_5314"
    INDEX 01 03:10:59
  TRACK 130 AUDIO
    TITLE "0:"
    INDEX 01 03:15:23
  TRACK 131 AUDIO
    TITLE "32:cjc123_5315"
    INDEX 01 03:15:51
  TRACK 132 AUDIO
    TITLE "0:"
    INDEX 01 03:19:33
  TRACK 133 AUDIO
    TITLE "28:cjc123_5316"
    INDEX 01 03:20:03
  TRACK 134 AUDIO
    TITLE "0:"
    INDEX 01 03:21:49
  TRACK 135 AUDIO
    TITLE "29:cjc123_5317"
    INDEX 01 03:21:67
  TRACK 136 AUDIO
    TITLE "0:"
    INDEX 01 03:23:56
  TRACK 137 AUDIO
    TITLE "30:cjc123_5318"
    INDEX 01 03:23:66
  TRACK 138 AUDIO
    TITLE "0:"
    INDEX 01 03:25:18
  TRACK 139 AUDIO
    TITLE "31:cjc123_5319"
    INDEX 01 03:25:71
  TRACK 140 AUDIO
    TITLE "0:"
    INDEX 01 03:32:22
  TRACK 141 AUDIO
    TITLE "32:cjc123_5320"
    INDEX 01 03:32:65
  TRACK 142 AUDIO
    TITLE "0:"
    INDEX 01 03:38:71
  TRACK 143 AUDIO
    TITLE "28:cjc123_5321"
    INDEX 01 03:39:41
  TRACK 144 AUDIO
    TITLE "0:"
    INDEX 01 03:40:37
  TRACK 145 AUDIO
    TITLE "29:cjc123_5322"
    INDEX 01 03:40:53
  TRACK 146 AUDIO
    TITLE "0:"
    INDEX 01 03:41:70
  TRACK 147 AUDIO
    TITLE "30:cjc123_5323"
    INDEX 01 03:42:05
  TRACK 148 AUDIO
    TITLE "0:"
    INDEX 01 03:43:04
  TRACK 149 AUDIO
    TITLE "31:cjc123_5324"
    INDEX 01 03:43:55
  TRACK 150 AUDIO
    TITLE "0:"
    INDEX 01 03:47:04
  TRACK 151 AUDIO
    TITLE "32:cjc123_5325"
    INDEX 01 03:47:43
  TRACK 152 AUDIO
    TITLE "0:"
    INDEX 01 03:51:13
